<mxfile host="app.diagrams.net" modified="2023-03-01T11:14:22.375Z" agent="5.0 (X11; Linux x86_64) AppleWebKit/537.36 (KHTML, like Gecko) Chrome/110.0.0.0 Safari/537.36" etag="P2XoJQU4LkmcGVvcvaSf" version="20.8.23" type="github">
  <diagram name="Pagina-1" id="x2BRIcllwMEJwVAzaiwb">
    <mxGraphModel dx="1221" dy="759" grid="1" gridSize="10" guides="1" tooltips="1" connect="1" arrows="1" fold="1" page="1" pageScale="1" pageWidth="827" pageHeight="1169" math="0" shadow="0">
      <root>
        <mxCell id="0" />
        <mxCell id="1" parent="0" />
        <mxCell id="UzuAz0OelTo2IA3SxHxy-1" value="" style="strokeWidth=1;shadow=0;dashed=0;align=center;html=1;shape=mxgraph.mockup.containers.browserWindow;rSize=0;strokeColor=#666666;strokeColor2=#008cff;strokeColor3=#c4c4c4;mainText=,;recursiveResize=0;" parent="1" vertex="1">
          <mxGeometry x="40" y="80" width="774" height="520" as="geometry" />
        </mxCell>
        <mxCell id="UzuAz0OelTo2IA3SxHxy-2" value="Page 1" style="strokeWidth=1;shadow=0;dashed=0;align=center;html=1;shape=mxgraph.mockup.containers.anchor;fontSize=17;fontColor=#666666;align=left;" parent="UzuAz0OelTo2IA3SxHxy-1" vertex="1">
          <mxGeometry x="60" y="12" width="110" height="26" as="geometry" />
        </mxCell>
        <mxCell id="UzuAz0OelTo2IA3SxHxy-3" value="https://www.artisanonlineshop/vendor" style="strokeWidth=1;shadow=0;dashed=0;align=center;html=1;shape=mxgraph.mockup.containers.anchor;rSize=0;fontSize=17;fontColor=#666666;align=left;" parent="UzuAz0OelTo2IA3SxHxy-1" vertex="1">
          <mxGeometry x="130" y="60" width="250" height="26" as="geometry" />
        </mxCell>
        <mxCell id="_CVq5Kca2ncCkI95stqj-1" value="" style="rounded=0;whiteSpace=wrap;html=1;" parent="UzuAz0OelTo2IA3SxHxy-1" vertex="1">
          <mxGeometry x="20" y="120" width="130" height="120" as="geometry" />
        </mxCell>
        <mxCell id="_CVq5Kca2ncCkI95stqj-2" value="" style="aspect=fixed;html=1;points=[];align=center;image;fontSize=12;image=img/lib/azure2/general/Image.svg;" parent="UzuAz0OelTo2IA3SxHxy-1" vertex="1">
          <mxGeometry x="50" y="158" width="64" height="44" as="geometry" />
        </mxCell>
        <mxCell id="_CVq5Kca2ncCkI95stqj-5" value="" style="group" parent="UzuAz0OelTo2IA3SxHxy-1" vertex="1" connectable="0">
          <mxGeometry x="20" y="243" width="40" height="40" as="geometry" />
        </mxCell>
        <mxCell id="_CVq5Kca2ncCkI95stqj-3" value="" style="rounded=0;whiteSpace=wrap;html=1;" parent="_CVq5Kca2ncCkI95stqj-5" vertex="1">
          <mxGeometry width="40" height="40" as="geometry" />
        </mxCell>
        <mxCell id="_CVq5Kca2ncCkI95stqj-4" value="" style="aspect=fixed;html=1;points=[];align=center;image;fontSize=12;image=img/lib/azure2/general/Image.svg;" parent="_CVq5Kca2ncCkI95stqj-5" vertex="1">
          <mxGeometry x="9.23076923076923" y="12.666666666666666" width="19.692307692307693" height="13.53846153846154" as="geometry" />
        </mxCell>
        <mxCell id="_CVq5Kca2ncCkI95stqj-6" value="" style="group" parent="UzuAz0OelTo2IA3SxHxy-1" vertex="1" connectable="0">
          <mxGeometry x="65" y="243" width="40" height="40" as="geometry" />
        </mxCell>
        <mxCell id="_CVq5Kca2ncCkI95stqj-7" value="" style="rounded=0;whiteSpace=wrap;html=1;" parent="_CVq5Kca2ncCkI95stqj-6" vertex="1">
          <mxGeometry width="40" height="40" as="geometry" />
        </mxCell>
        <mxCell id="_CVq5Kca2ncCkI95stqj-8" value="" style="aspect=fixed;html=1;points=[];align=center;image;fontSize=12;image=img/lib/azure2/general/Image.svg;" parent="_CVq5Kca2ncCkI95stqj-6" vertex="1">
          <mxGeometry x="9.23076923076923" y="12.666666666666666" width="19.692307692307693" height="13.53846153846154" as="geometry" />
        </mxCell>
        <mxCell id="_CVq5Kca2ncCkI95stqj-9" value="" style="group" parent="UzuAz0OelTo2IA3SxHxy-1" vertex="1" connectable="0">
          <mxGeometry x="110" y="243" width="40" height="40" as="geometry" />
        </mxCell>
        <mxCell id="_CVq5Kca2ncCkI95stqj-10" value="" style="rounded=0;whiteSpace=wrap;html=1;" parent="_CVq5Kca2ncCkI95stqj-9" vertex="1">
          <mxGeometry width="40" height="40" as="geometry" />
        </mxCell>
        <mxCell id="_CVq5Kca2ncCkI95stqj-11" value="" style="aspect=fixed;html=1;points=[];align=center;image;fontSize=12;image=img/lib/azure2/general/Image.svg;" parent="_CVq5Kca2ncCkI95stqj-9" vertex="1">
          <mxGeometry x="9.23076923076923" y="12.666666666666666" width="19.692307692307693" height="13.53846153846154" as="geometry" />
        </mxCell>
        <mxCell id="rS0bTR9YB4WlTkBpcvOq-1" value="Search" style="strokeWidth=1;shadow=0;dashed=0;align=center;html=1;shape=mxgraph.mockup.forms.searchBox;strokeColor=#999999;mainText=;strokeColor2=#008cff;fontColor=#666666;fontSize=17;align=left;spacingLeft=3;" parent="UzuAz0OelTo2IA3SxHxy-1" vertex="1">
          <mxGeometry x="590" y="120" width="150" height="30" as="geometry" />
        </mxCell>
        <mxCell id="rS0bTR9YB4WlTkBpcvOq-56" value="" style="rounded=0;whiteSpace=wrap;html=1;" parent="UzuAz0OelTo2IA3SxHxy-1" vertex="1">
          <mxGeometry x="359" y="120" width="161" height="140" as="geometry" />
        </mxCell>
        <mxCell id="rS0bTR9YB4WlTkBpcvOq-55" value="" style="verticalLabelPosition=bottom;shadow=0;dashed=0;align=center;html=1;verticalAlign=top;strokeWidth=1;shape=mxgraph.mockup.misc.map;" parent="UzuAz0OelTo2IA3SxHxy-1" vertex="1">
          <mxGeometry x="369" y="140" width="141" height="110" as="geometry" />
        </mxCell>
        <mxCell id="rS0bTR9YB4WlTkBpcvOq-57" value="Location" style="text;html=1;align=center;verticalAlign=middle;resizable=0;points=[];autosize=1;strokeColor=none;fillColor=none;" parent="UzuAz0OelTo2IA3SxHxy-1" vertex="1">
          <mxGeometry x="359" y="120" width="70" height="30" as="geometry" />
        </mxCell>
        <mxCell id="rS0bTR9YB4WlTkBpcvOq-63" value="See the region" style="strokeWidth=1;shadow=0;dashed=0;align=center;html=1;shape=mxgraph.mockup.buttons.button;strokeColor=#666666;fontColor=#ffffff;mainText=;buttonStyle=round;fontSize=17;fontStyle=1;fillColor=#008cff;whiteSpace=wrap;" parent="UzuAz0OelTo2IA3SxHxy-1" vertex="1">
          <mxGeometry x="590" y="283" width="150" height="37" as="geometry" />
        </mxCell>
        <mxCell id="rS0bTR9YB4WlTkBpcvOq-64" value="" style="group" parent="UzuAz0OelTo2IA3SxHxy-1" vertex="1" connectable="0">
          <mxGeometry x="600" y="330" width="40" height="40" as="geometry" />
        </mxCell>
        <mxCell id="rS0bTR9YB4WlTkBpcvOq-65" value="" style="rounded=0;whiteSpace=wrap;html=1;" parent="rS0bTR9YB4WlTkBpcvOq-64" vertex="1">
          <mxGeometry width="40" height="40" as="geometry" />
        </mxCell>
        <mxCell id="rS0bTR9YB4WlTkBpcvOq-66" value="" style="aspect=fixed;html=1;points=[];align=center;image;fontSize=12;image=img/lib/azure2/general/Image.svg;" parent="rS0bTR9YB4WlTkBpcvOq-64" vertex="1">
          <mxGeometry x="9.23076923076923" y="12.666666666666666" width="19.692307692307693" height="13.53846153846154" as="geometry" />
        </mxCell>
        <mxCell id="rS0bTR9YB4WlTkBpcvOq-67" value="" style="group" parent="UzuAz0OelTo2IA3SxHxy-1" vertex="1" connectable="0">
          <mxGeometry x="645" y="330" width="40" height="40" as="geometry" />
        </mxCell>
        <mxCell id="rS0bTR9YB4WlTkBpcvOq-68" value="" style="rounded=0;whiteSpace=wrap;html=1;" parent="rS0bTR9YB4WlTkBpcvOq-67" vertex="1">
          <mxGeometry width="40" height="40" as="geometry" />
        </mxCell>
        <mxCell id="rS0bTR9YB4WlTkBpcvOq-69" value="" style="aspect=fixed;html=1;points=[];align=center;image;fontSize=12;image=img/lib/azure2/general/Image.svg;" parent="rS0bTR9YB4WlTkBpcvOq-67" vertex="1">
          <mxGeometry x="9.23076923076923" y="12.666666666666666" width="19.692307692307693" height="13.53846153846154" as="geometry" />
        </mxCell>
        <mxCell id="rS0bTR9YB4WlTkBpcvOq-70" value="" style="group" parent="UzuAz0OelTo2IA3SxHxy-1" vertex="1" connectable="0">
          <mxGeometry x="690" y="330" width="40" height="40" as="geometry" />
        </mxCell>
        <mxCell id="rS0bTR9YB4WlTkBpcvOq-71" value="" style="rounded=0;whiteSpace=wrap;html=1;" parent="rS0bTR9YB4WlTkBpcvOq-70" vertex="1">
          <mxGeometry width="40" height="40" as="geometry" />
        </mxCell>
        <mxCell id="rS0bTR9YB4WlTkBpcvOq-72" value="" style="aspect=fixed;html=1;points=[];align=center;image;fontSize=12;image=img/lib/azure2/general/Image.svg;" parent="rS0bTR9YB4WlTkBpcvOq-70" vertex="1">
          <mxGeometry x="9.23076923076923" y="12.666666666666666" width="19.692307692307693" height="13.53846153846154" as="geometry" />
        </mxCell>
        <mxCell id="rS0bTR9YB4WlTkBpcvOq-73" value="" style="group" parent="UzuAz0OelTo2IA3SxHxy-1" vertex="1" connectable="0">
          <mxGeometry x="600" y="380" width="40" height="40" as="geometry" />
        </mxCell>
        <mxCell id="rS0bTR9YB4WlTkBpcvOq-74" value="" style="rounded=0;whiteSpace=wrap;html=1;" parent="rS0bTR9YB4WlTkBpcvOq-73" vertex="1">
          <mxGeometry width="40" height="40" as="geometry" />
        </mxCell>
        <mxCell id="rS0bTR9YB4WlTkBpcvOq-75" value="" style="aspect=fixed;html=1;points=[];align=center;image;fontSize=12;image=img/lib/azure2/general/Image.svg;" parent="rS0bTR9YB4WlTkBpcvOq-73" vertex="1">
          <mxGeometry x="9.23076923076923" y="12.666666666666666" width="19.692307692307693" height="13.53846153846154" as="geometry" />
        </mxCell>
        <mxCell id="rS0bTR9YB4WlTkBpcvOq-76" value="" style="group" parent="UzuAz0OelTo2IA3SxHxy-1" vertex="1" connectable="0">
          <mxGeometry x="645" y="380" width="40" height="40" as="geometry" />
        </mxCell>
        <mxCell id="rS0bTR9YB4WlTkBpcvOq-77" value="" style="rounded=0;whiteSpace=wrap;html=1;" parent="rS0bTR9YB4WlTkBpcvOq-76" vertex="1">
          <mxGeometry width="40" height="40" as="geometry" />
        </mxCell>
        <mxCell id="rS0bTR9YB4WlTkBpcvOq-78" value="" style="aspect=fixed;html=1;points=[];align=center;image;fontSize=12;image=img/lib/azure2/general/Image.svg;" parent="rS0bTR9YB4WlTkBpcvOq-76" vertex="1">
          <mxGeometry x="9.23076923076923" y="12.666666666666666" width="19.692307692307693" height="13.53846153846154" as="geometry" />
        </mxCell>
        <mxCell id="rS0bTR9YB4WlTkBpcvOq-79" value="" style="group" parent="UzuAz0OelTo2IA3SxHxy-1" vertex="1" connectable="0">
          <mxGeometry x="690" y="380" width="40" height="40" as="geometry" />
        </mxCell>
        <mxCell id="rS0bTR9YB4WlTkBpcvOq-80" value="" style="rounded=0;whiteSpace=wrap;html=1;" parent="rS0bTR9YB4WlTkBpcvOq-79" vertex="1">
          <mxGeometry width="40" height="40" as="geometry" />
        </mxCell>
        <mxCell id="rS0bTR9YB4WlTkBpcvOq-81" value="" style="aspect=fixed;html=1;points=[];align=center;image;fontSize=12;image=img/lib/azure2/general/Image.svg;" parent="rS0bTR9YB4WlTkBpcvOq-79" vertex="1">
          <mxGeometry x="9.23076923076923" y="12.666666666666666" width="19.692307692307693" height="13.53846153846154" as="geometry" />
        </mxCell>
        <mxCell id="rS0bTR9YB4WlTkBpcvOq-82" value="" style="endArrow=none;html=1;rounded=0;strokeColor=#E5CCFF;" parent="UzuAz0OelTo2IA3SxHxy-1" edge="1">
          <mxGeometry width="50" height="50" relative="1" as="geometry">
            <mxPoint x="585.3399999999999" y="110" as="sourcePoint" />
            <mxPoint x="586" y="520" as="targetPoint" />
          </mxGeometry>
        </mxCell>
        <mxCell id="rS0bTR9YB4WlTkBpcvOq-84" value="" style="rounded=0;whiteSpace=wrap;html=1;" parent="UzuAz0OelTo2IA3SxHxy-1" vertex="1">
          <mxGeometry x="20" y="287" width="130" height="153" as="geometry" />
        </mxCell>
        <mxCell id="rS0bTR9YB4WlTkBpcvOq-2" value="" style="strokeWidth=1;shadow=0;dashed=0;align=center;html=1;shape=mxgraph.mockup.forms.rrect;rSize=5;strokeColor=#999999;fillColor=#ffffff;" parent="UzuAz0OelTo2IA3SxHxy-1" vertex="1">
          <mxGeometry x="20" y="307" width="130" height="140" as="geometry" />
        </mxCell>
        <mxCell id="rS0bTR9YB4WlTkBpcvOq-3" value="October 2014" style="strokeWidth=1;shadow=0;dashed=0;align=center;html=1;shape=mxgraph.mockup.forms.anchor;fontColor=#999999;" parent="rS0bTR9YB4WlTkBpcvOq-2" vertex="1">
          <mxGeometry x="24.375" y="6.4" width="81.25" height="16" as="geometry" />
        </mxCell>
        <mxCell id="rS0bTR9YB4WlTkBpcvOq-4" value="&lt;" style="strokeWidth=1;shadow=0;dashed=0;align=center;html=1;shape=mxgraph.mockup.forms.rrect;rSize=4;strokeColor=#999999;fontColor=#008cff;fontSize=19;fontStyle=1;" parent="rS0bTR9YB4WlTkBpcvOq-2" vertex="1">
          <mxGeometry x="6.5" y="6.4" width="20.3125" height="16" as="geometry" />
        </mxCell>
        <mxCell id="rS0bTR9YB4WlTkBpcvOq-5" value="&gt;" style="strokeWidth=1;shadow=0;dashed=0;align=center;html=1;shape=mxgraph.mockup.forms.rrect;rSize=4;strokeColor=#999999;fontColor=#008cff;fontSize=19;fontStyle=1;" parent="rS0bTR9YB4WlTkBpcvOq-2" vertex="1">
          <mxGeometry x="103.1875" y="6.4" width="20.3125" height="16" as="geometry" />
        </mxCell>
        <mxCell id="rS0bTR9YB4WlTkBpcvOq-6" value="Mo" style="strokeWidth=1;shadow=0;dashed=0;align=center;html=1;shape=mxgraph.mockup.forms.anchor;fontColor=#999999;" parent="rS0bTR9YB4WlTkBpcvOq-2" vertex="1">
          <mxGeometry x="8.125" y="22.400000000000002" width="16.25" height="16" as="geometry" />
        </mxCell>
        <mxCell id="rS0bTR9YB4WlTkBpcvOq-7" value="Tu" style="strokeWidth=1;shadow=0;dashed=0;align=center;html=1;shape=mxgraph.mockup.forms.anchor;fontColor=#999999;" parent="rS0bTR9YB4WlTkBpcvOq-2" vertex="1">
          <mxGeometry x="24.375" y="22.400000000000002" width="16.25" height="16" as="geometry" />
        </mxCell>
        <mxCell id="rS0bTR9YB4WlTkBpcvOq-8" value="We" style="strokeWidth=1;shadow=0;dashed=0;align=center;html=1;shape=mxgraph.mockup.forms.anchor;fontColor=#999999;" parent="rS0bTR9YB4WlTkBpcvOq-2" vertex="1">
          <mxGeometry x="40.625" y="22.400000000000002" width="16.25" height="16" as="geometry" />
        </mxCell>
        <mxCell id="rS0bTR9YB4WlTkBpcvOq-9" value="Th" style="strokeWidth=1;shadow=0;dashed=0;align=center;html=1;shape=mxgraph.mockup.forms.anchor;fontColor=#999999;" parent="rS0bTR9YB4WlTkBpcvOq-2" vertex="1">
          <mxGeometry x="56.875" y="22.400000000000002" width="16.25" height="16" as="geometry" />
        </mxCell>
        <mxCell id="rS0bTR9YB4WlTkBpcvOq-10" value="Fr" style="strokeWidth=1;shadow=0;dashed=0;align=center;html=1;shape=mxgraph.mockup.forms.anchor;fontColor=#999999;" parent="rS0bTR9YB4WlTkBpcvOq-2" vertex="1">
          <mxGeometry x="73.125" y="22.400000000000002" width="16.25" height="16" as="geometry" />
        </mxCell>
        <mxCell id="rS0bTR9YB4WlTkBpcvOq-11" value="Sa" style="strokeWidth=1;shadow=0;dashed=0;align=center;html=1;shape=mxgraph.mockup.forms.anchor;fontColor=#999999;" parent="rS0bTR9YB4WlTkBpcvOq-2" vertex="1">
          <mxGeometry x="89.375" y="22.400000000000002" width="16.25" height="16" as="geometry" />
        </mxCell>
        <mxCell id="rS0bTR9YB4WlTkBpcvOq-12" value="Su" style="strokeWidth=1;shadow=0;dashed=0;align=center;html=1;shape=mxgraph.mockup.forms.anchor;fontColor=#999999;" parent="rS0bTR9YB4WlTkBpcvOq-2" vertex="1">
          <mxGeometry x="105.625" y="22.400000000000002" width="16.25" height="16" as="geometry" />
        </mxCell>
        <mxCell id="rS0bTR9YB4WlTkBpcvOq-13" value="1" style="strokeWidth=1;shadow=0;dashed=0;align=center;html=1;shape=mxgraph.mockup.forms.rrect;rSize=0;strokeColor=#999999;fontColor=#999999;" parent="rS0bTR9YB4WlTkBpcvOq-2" vertex="1">
          <mxGeometry x="8.125" y="38.400000000000006" width="16.25" height="16" as="geometry" />
        </mxCell>
        <mxCell id="rS0bTR9YB4WlTkBpcvOq-14" value="2" style="strokeWidth=1;shadow=0;dashed=0;align=center;html=1;shape=mxgraph.mockup.forms.rrect;rSize=0;strokeColor=#999999;fontColor=#999999;" parent="rS0bTR9YB4WlTkBpcvOq-2" vertex="1">
          <mxGeometry x="24.375" y="38.400000000000006" width="16.25" height="16" as="geometry" />
        </mxCell>
        <mxCell id="rS0bTR9YB4WlTkBpcvOq-15" value="3" style="strokeWidth=1;shadow=0;dashed=0;align=center;html=1;shape=mxgraph.mockup.forms.rrect;rSize=0;strokeColor=#999999;fontColor=#999999;" parent="rS0bTR9YB4WlTkBpcvOq-2" vertex="1">
          <mxGeometry x="40.625" y="38.400000000000006" width="16.25" height="16" as="geometry" />
        </mxCell>
        <mxCell id="rS0bTR9YB4WlTkBpcvOq-16" value="4" style="strokeWidth=1;shadow=0;dashed=0;align=center;html=1;shape=mxgraph.mockup.forms.rrect;rSize=0;strokeColor=#999999;fontColor=#999999;" parent="rS0bTR9YB4WlTkBpcvOq-2" vertex="1">
          <mxGeometry x="56.875" y="38.400000000000006" width="16.25" height="16" as="geometry" />
        </mxCell>
        <mxCell id="rS0bTR9YB4WlTkBpcvOq-17" value="5" style="strokeWidth=1;shadow=0;dashed=0;align=center;html=1;shape=mxgraph.mockup.forms.rrect;rSize=0;strokeColor=#999999;fontColor=#999999;" parent="rS0bTR9YB4WlTkBpcvOq-2" vertex="1">
          <mxGeometry x="73.125" y="38.400000000000006" width="16.25" height="16" as="geometry" />
        </mxCell>
        <mxCell id="rS0bTR9YB4WlTkBpcvOq-18" value="6" style="strokeWidth=1;shadow=0;dashed=0;align=center;html=1;shape=mxgraph.mockup.forms.rrect;rSize=0;strokeColor=#999999;fontColor=#999999;" parent="rS0bTR9YB4WlTkBpcvOq-2" vertex="1">
          <mxGeometry x="89.375" y="38.400000000000006" width="16.25" height="16" as="geometry" />
        </mxCell>
        <mxCell id="rS0bTR9YB4WlTkBpcvOq-19" value="7" style="strokeWidth=1;shadow=0;dashed=0;align=center;html=1;shape=mxgraph.mockup.forms.rrect;rSize=0;strokeColor=#999999;fontColor=#999999;" parent="rS0bTR9YB4WlTkBpcvOq-2" vertex="1">
          <mxGeometry x="105.625" y="38.400000000000006" width="16.25" height="16" as="geometry" />
        </mxCell>
        <mxCell id="rS0bTR9YB4WlTkBpcvOq-20" value="8" style="strokeWidth=1;shadow=0;dashed=0;align=center;html=1;shape=mxgraph.mockup.forms.rrect;rSize=0;strokeColor=#999999;fontColor=#999999;" parent="rS0bTR9YB4WlTkBpcvOq-2" vertex="1">
          <mxGeometry x="8.125" y="54.400000000000006" width="16.25" height="16" as="geometry" />
        </mxCell>
        <mxCell id="rS0bTR9YB4WlTkBpcvOq-21" value="9" style="strokeWidth=1;shadow=0;dashed=0;align=center;html=1;shape=mxgraph.mockup.forms.rrect;rSize=0;strokeColor=#999999;fontColor=#999999;" parent="rS0bTR9YB4WlTkBpcvOq-2" vertex="1">
          <mxGeometry x="24.375" y="54.400000000000006" width="16.25" height="16" as="geometry" />
        </mxCell>
        <mxCell id="rS0bTR9YB4WlTkBpcvOq-22" value="10" style="strokeWidth=1;shadow=0;dashed=0;align=center;html=1;shape=mxgraph.mockup.forms.rrect;rSize=0;strokeColor=#999999;fontColor=#999999;" parent="rS0bTR9YB4WlTkBpcvOq-2" vertex="1">
          <mxGeometry x="40.625" y="54.400000000000006" width="16.25" height="16" as="geometry" />
        </mxCell>
        <mxCell id="rS0bTR9YB4WlTkBpcvOq-23" value="11" style="strokeWidth=1;shadow=0;dashed=0;align=center;html=1;shape=mxgraph.mockup.forms.rrect;rSize=0;strokeColor=#999999;fontColor=#999999;" parent="rS0bTR9YB4WlTkBpcvOq-2" vertex="1">
          <mxGeometry x="56.875" y="54.400000000000006" width="16.25" height="16" as="geometry" />
        </mxCell>
        <mxCell id="rS0bTR9YB4WlTkBpcvOq-24" value="12" style="strokeWidth=1;shadow=0;dashed=0;align=center;html=1;shape=mxgraph.mockup.forms.rrect;rSize=0;strokeColor=#999999;fontColor=#999999;" parent="rS0bTR9YB4WlTkBpcvOq-2" vertex="1">
          <mxGeometry x="73.125" y="54.400000000000006" width="16.25" height="16" as="geometry" />
        </mxCell>
        <mxCell id="rS0bTR9YB4WlTkBpcvOq-25" value="13" style="strokeWidth=1;shadow=0;dashed=0;align=center;html=1;shape=mxgraph.mockup.forms.rrect;rSize=0;strokeColor=#999999;fontColor=#999999;" parent="rS0bTR9YB4WlTkBpcvOq-2" vertex="1">
          <mxGeometry x="89.375" y="54.400000000000006" width="16.25" height="16" as="geometry" />
        </mxCell>
        <mxCell id="rS0bTR9YB4WlTkBpcvOq-26" value="14" style="strokeWidth=1;shadow=0;dashed=0;align=center;html=1;shape=mxgraph.mockup.forms.rrect;rSize=0;strokeColor=#999999;fontColor=#999999;" parent="rS0bTR9YB4WlTkBpcvOq-2" vertex="1">
          <mxGeometry x="105.625" y="54.400000000000006" width="16.25" height="16" as="geometry" />
        </mxCell>
        <mxCell id="rS0bTR9YB4WlTkBpcvOq-27" value="15" style="strokeWidth=1;shadow=0;dashed=0;align=center;html=1;shape=mxgraph.mockup.forms.rrect;rSize=0;strokeColor=#999999;fontColor=#999999;" parent="rS0bTR9YB4WlTkBpcvOq-2" vertex="1">
          <mxGeometry x="8.125" y="70.4" width="16.25" height="16" as="geometry" />
        </mxCell>
        <mxCell id="rS0bTR9YB4WlTkBpcvOq-28" value="16" style="strokeWidth=1;shadow=0;dashed=0;align=center;html=1;shape=mxgraph.mockup.forms.rrect;rSize=0;strokeColor=#999999;fontColor=#999999;" parent="rS0bTR9YB4WlTkBpcvOq-2" vertex="1">
          <mxGeometry x="24.375" y="70.4" width="16.25" height="16" as="geometry" />
        </mxCell>
        <mxCell id="rS0bTR9YB4WlTkBpcvOq-29" value="17" style="strokeWidth=1;shadow=0;dashed=0;align=center;html=1;shape=mxgraph.mockup.forms.rrect;rSize=0;strokeColor=#999999;fontColor=#999999;" parent="rS0bTR9YB4WlTkBpcvOq-2" vertex="1">
          <mxGeometry x="40.625" y="70.4" width="16.25" height="16" as="geometry" />
        </mxCell>
        <mxCell id="rS0bTR9YB4WlTkBpcvOq-30" value="18" style="strokeWidth=1;shadow=0;dashed=0;align=center;html=1;shape=mxgraph.mockup.forms.rrect;rSize=0;strokeColor=#999999;fontColor=#999999;" parent="rS0bTR9YB4WlTkBpcvOq-2" vertex="1">
          <mxGeometry x="56.875" y="70.4" width="16.25" height="16" as="geometry" />
        </mxCell>
        <mxCell id="rS0bTR9YB4WlTkBpcvOq-31" value="19" style="strokeWidth=1;shadow=0;dashed=0;align=center;html=1;shape=mxgraph.mockup.forms.rrect;rSize=0;strokeColor=#999999;fontColor=#999999;" parent="rS0bTR9YB4WlTkBpcvOq-2" vertex="1">
          <mxGeometry x="73.125" y="70.4" width="16.25" height="16" as="geometry" />
        </mxCell>
        <mxCell id="rS0bTR9YB4WlTkBpcvOq-32" value="20" style="strokeWidth=1;shadow=0;dashed=0;align=center;html=1;shape=mxgraph.mockup.forms.rrect;rSize=0;strokeColor=#999999;fontColor=#999999;" parent="rS0bTR9YB4WlTkBpcvOq-2" vertex="1">
          <mxGeometry x="89.375" y="70.4" width="16.25" height="16" as="geometry" />
        </mxCell>
        <mxCell id="rS0bTR9YB4WlTkBpcvOq-33" value="21" style="strokeWidth=1;shadow=0;dashed=0;align=center;html=1;shape=mxgraph.mockup.forms.rrect;rSize=0;strokeColor=#999999;fontColor=#999999;" parent="rS0bTR9YB4WlTkBpcvOq-2" vertex="1">
          <mxGeometry x="105.625" y="70.4" width="16.25" height="16" as="geometry" />
        </mxCell>
        <mxCell id="rS0bTR9YB4WlTkBpcvOq-34" value="22" style="strokeWidth=1;shadow=0;dashed=0;align=center;html=1;shape=mxgraph.mockup.forms.rrect;rSize=0;strokeColor=#999999;fontColor=#999999;" parent="rS0bTR9YB4WlTkBpcvOq-2" vertex="1">
          <mxGeometry x="8.125" y="86.4" width="16.25" height="16" as="geometry" />
        </mxCell>
        <mxCell id="rS0bTR9YB4WlTkBpcvOq-35" value="23" style="strokeWidth=1;shadow=0;dashed=0;align=center;html=1;shape=mxgraph.mockup.forms.rrect;rSize=0;strokeColor=#999999;fontColor=#999999;" parent="rS0bTR9YB4WlTkBpcvOq-2" vertex="1">
          <mxGeometry x="24.375" y="86.4" width="16.25" height="16" as="geometry" />
        </mxCell>
        <mxCell id="rS0bTR9YB4WlTkBpcvOq-36" value="25" style="strokeWidth=1;shadow=0;dashed=0;align=center;html=1;shape=mxgraph.mockup.forms.rrect;rSize=0;strokeColor=#999999;fontColor=#999999;" parent="rS0bTR9YB4WlTkBpcvOq-2" vertex="1">
          <mxGeometry x="56.875" y="86.4" width="16.25" height="16" as="geometry" />
        </mxCell>
        <mxCell id="rS0bTR9YB4WlTkBpcvOq-37" value="26" style="strokeWidth=1;shadow=0;dashed=0;align=center;html=1;shape=mxgraph.mockup.forms.rrect;rSize=0;strokeColor=#999999;fontColor=#999999;" parent="rS0bTR9YB4WlTkBpcvOq-2" vertex="1">
          <mxGeometry x="73.125" y="86.4" width="16.25" height="16" as="geometry" />
        </mxCell>
        <mxCell id="rS0bTR9YB4WlTkBpcvOq-38" value="27" style="strokeWidth=1;shadow=0;dashed=0;align=center;html=1;shape=mxgraph.mockup.forms.rrect;rSize=0;strokeColor=#999999;fontColor=#999999;" parent="rS0bTR9YB4WlTkBpcvOq-2" vertex="1">
          <mxGeometry x="89.375" y="86.4" width="16.25" height="16" as="geometry" />
        </mxCell>
        <mxCell id="rS0bTR9YB4WlTkBpcvOq-39" value="28" style="strokeWidth=1;shadow=0;dashed=0;align=center;html=1;shape=mxgraph.mockup.forms.rrect;rSize=0;strokeColor=#999999;fontColor=#999999;" parent="rS0bTR9YB4WlTkBpcvOq-2" vertex="1">
          <mxGeometry x="105.625" y="86.4" width="16.25" height="16" as="geometry" />
        </mxCell>
        <mxCell id="rS0bTR9YB4WlTkBpcvOq-40" value="29" style="strokeWidth=1;shadow=0;dashed=0;align=center;html=1;shape=mxgraph.mockup.forms.rrect;rSize=0;strokeColor=#999999;fontColor=#999999;" parent="rS0bTR9YB4WlTkBpcvOq-2" vertex="1">
          <mxGeometry x="8.125" y="102.4" width="16.25" height="16" as="geometry" />
        </mxCell>
        <mxCell id="rS0bTR9YB4WlTkBpcvOq-41" value="30" style="strokeWidth=1;shadow=0;dashed=0;align=center;html=1;shape=mxgraph.mockup.forms.rrect;rSize=0;strokeColor=#999999;fontColor=#999999;" parent="rS0bTR9YB4WlTkBpcvOq-2" vertex="1">
          <mxGeometry x="24.375" y="102.4" width="16.25" height="16" as="geometry" />
        </mxCell>
        <mxCell id="rS0bTR9YB4WlTkBpcvOq-42" value="31" style="strokeWidth=1;shadow=0;dashed=0;align=center;html=1;shape=mxgraph.mockup.forms.rrect;rSize=0;strokeColor=#999999;fontColor=#999999;" parent="rS0bTR9YB4WlTkBpcvOq-2" vertex="1">
          <mxGeometry x="40.625" y="102.4" width="16.25" height="16" as="geometry" />
        </mxCell>
        <mxCell id="rS0bTR9YB4WlTkBpcvOq-43" value="1" style="strokeWidth=1;shadow=0;dashed=0;align=center;html=1;shape=mxgraph.mockup.forms.rrect;rSize=0;strokeColor=#999999;fontColor=#999999;fillColor=#ddeeff;" parent="rS0bTR9YB4WlTkBpcvOq-2" vertex="1">
          <mxGeometry x="56.875" y="102.4" width="16.25" height="16" as="geometry" />
        </mxCell>
        <mxCell id="rS0bTR9YB4WlTkBpcvOq-44" value="2" style="strokeWidth=1;shadow=0;dashed=0;align=center;html=1;shape=mxgraph.mockup.forms.rrect;rSize=0;strokeColor=#999999;fontColor=#999999;fillColor=#ddeeff;" parent="rS0bTR9YB4WlTkBpcvOq-2" vertex="1">
          <mxGeometry x="73.125" y="102.4" width="16.25" height="16" as="geometry" />
        </mxCell>
        <mxCell id="rS0bTR9YB4WlTkBpcvOq-45" value="3" style="strokeWidth=1;shadow=0;dashed=0;align=center;html=1;shape=mxgraph.mockup.forms.rrect;rSize=0;strokeColor=#999999;fontColor=#999999;fillColor=#ddeeff;" parent="rS0bTR9YB4WlTkBpcvOq-2" vertex="1">
          <mxGeometry x="89.375" y="102.4" width="16.25" height="16" as="geometry" />
        </mxCell>
        <mxCell id="rS0bTR9YB4WlTkBpcvOq-46" value="4" style="strokeWidth=1;shadow=0;dashed=0;align=center;html=1;shape=mxgraph.mockup.forms.rrect;rSize=0;strokeColor=#999999;fontColor=#999999;fillColor=#ddeeff;" parent="rS0bTR9YB4WlTkBpcvOq-2" vertex="1">
          <mxGeometry x="105.625" y="102.4" width="16.25" height="16" as="geometry" />
        </mxCell>
        <mxCell id="rS0bTR9YB4WlTkBpcvOq-47" value="5" style="strokeWidth=1;shadow=0;dashed=0;align=center;html=1;shape=mxgraph.mockup.forms.rrect;rSize=0;strokeColor=#999999;fontColor=#999999;fillColor=#ddeeff;" parent="rS0bTR9YB4WlTkBpcvOq-2" vertex="1">
          <mxGeometry x="8.125" y="118.4" width="16.25" height="16" as="geometry" />
        </mxCell>
        <mxCell id="rS0bTR9YB4WlTkBpcvOq-48" value="6" style="strokeWidth=1;shadow=0;dashed=0;align=center;html=1;shape=mxgraph.mockup.forms.rrect;rSize=0;strokeColor=#999999;fontColor=#999999;fillColor=#ddeeff;" parent="rS0bTR9YB4WlTkBpcvOq-2" vertex="1">
          <mxGeometry x="24.375" y="118.4" width="16.25" height="16" as="geometry" />
        </mxCell>
        <mxCell id="rS0bTR9YB4WlTkBpcvOq-49" value="7" style="strokeWidth=1;shadow=0;dashed=0;align=center;html=1;shape=mxgraph.mockup.forms.rrect;rSize=0;strokeColor=#999999;fontColor=#999999;fillColor=#ddeeff;" parent="rS0bTR9YB4WlTkBpcvOq-2" vertex="1">
          <mxGeometry x="40.625" y="118.4" width="16.25" height="16" as="geometry" />
        </mxCell>
        <mxCell id="rS0bTR9YB4WlTkBpcvOq-50" value="8" style="strokeWidth=1;shadow=0;dashed=0;align=center;html=1;shape=mxgraph.mockup.forms.rrect;rSize=0;strokeColor=#999999;fontColor=#999999;fillColor=#ddeeff;" parent="rS0bTR9YB4WlTkBpcvOq-2" vertex="1">
          <mxGeometry x="56.875" y="118.4" width="16.25" height="16" as="geometry" />
        </mxCell>
        <mxCell id="rS0bTR9YB4WlTkBpcvOq-51" value="9" style="strokeWidth=1;shadow=0;dashed=0;align=center;html=1;shape=mxgraph.mockup.forms.rrect;rSize=0;strokeColor=#999999;fontColor=#999999;fillColor=#ddeeff;" parent="rS0bTR9YB4WlTkBpcvOq-2" vertex="1">
          <mxGeometry x="73.125" y="118.4" width="16.25" height="16" as="geometry" />
        </mxCell>
        <mxCell id="rS0bTR9YB4WlTkBpcvOq-52" value="10" style="strokeWidth=1;shadow=0;dashed=0;align=center;html=1;shape=mxgraph.mockup.forms.rrect;rSize=0;strokeColor=#999999;fontColor=#999999;fillColor=#ddeeff;" parent="rS0bTR9YB4WlTkBpcvOq-2" vertex="1">
          <mxGeometry x="89.375" y="118.4" width="16.25" height="16" as="geometry" />
        </mxCell>
        <mxCell id="rS0bTR9YB4WlTkBpcvOq-53" value="11" style="strokeWidth=1;shadow=0;dashed=0;align=center;html=1;shape=mxgraph.mockup.forms.rrect;rSize=0;strokeColor=#999999;fontColor=#999999;fillColor=#ddeeff;" parent="rS0bTR9YB4WlTkBpcvOq-2" vertex="1">
          <mxGeometry x="105.625" y="118.4" width="16.25" height="16" as="geometry" />
        </mxCell>
        <mxCell id="rS0bTR9YB4WlTkBpcvOq-54" value="24" style="strokeWidth=1;shadow=0;dashed=0;align=center;html=1;shape=mxgraph.mockup.forms.rrect;rSize=0;strokeColor=#ff0000;fontColor=#ffffff;strokeWidth=2;fillColor=#008cff;" parent="rS0bTR9YB4WlTkBpcvOq-2" vertex="1">
          <mxGeometry x="40.625" y="86.4" width="16.25" height="16" as="geometry" />
        </mxCell>
        <mxCell id="rS0bTR9YB4WlTkBpcvOq-83" value="Availability" style="text;html=1;align=center;verticalAlign=middle;resizable=0;points=[];autosize=1;strokeColor=none;fillColor=none;" parent="UzuAz0OelTo2IA3SxHxy-1" vertex="1">
          <mxGeometry x="20" y="283" width="80" height="30" as="geometry" />
        </mxCell>
        <mxCell id="kNPeD4hBuYndt3T_yiyA-1" value="Name:" style="text;html=1;align=right;verticalAlign=middle;resizable=0;points=[];autosize=1;strokeColor=none;fillColor=none;" vertex="1" parent="UzuAz0OelTo2IA3SxHxy-1">
          <mxGeometry x="138" y="120" width="60" height="30" as="geometry" />
        </mxCell>
        <mxCell id="kNPeD4hBuYndt3T_yiyA-3" value="Region:" style="text;html=1;align=right;verticalAlign=middle;resizable=0;points=[];autosize=1;strokeColor=none;fillColor=none;" vertex="1" parent="UzuAz0OelTo2IA3SxHxy-1">
          <mxGeometry x="138" y="142" width="60" height="30" as="geometry" />
        </mxCell>
        <mxCell id="kNPeD4hBuYndt3T_yiyA-6" value="Rating:" style="text;html=1;align=right;verticalAlign=middle;resizable=0;points=[];autosize=1;strokeColor=none;fillColor=none;" vertex="1" parent="UzuAz0OelTo2IA3SxHxy-1">
          <mxGeometry x="138" y="170" width="60" height="30" as="geometry" />
        </mxCell>
        <mxCell id="kNPeD4hBuYndt3T_yiyA-8" value="&amp;lt;artisan name || shop name&amp;gt;" style="text;html=1;align=left;verticalAlign=middle;resizable=0;points=[];autosize=1;strokeColor=none;fillColor=none;" vertex="1" parent="UzuAz0OelTo2IA3SxHxy-1">
          <mxGeometry x="198" y="120" width="180" height="30" as="geometry" />
        </mxCell>
        <mxCell id="kNPeD4hBuYndt3T_yiyA-10" value="&amp;lt;region &amp;amp; country&amp;gt;" style="text;html=1;align=left;verticalAlign=middle;resizable=0;points=[];autosize=1;strokeColor=none;fillColor=none;" vertex="1" parent="UzuAz0OelTo2IA3SxHxy-1">
          <mxGeometry x="198" y="142" width="120" height="30" as="geometry" />
        </mxCell>
        <mxCell id="kNPeD4hBuYndt3T_yiyA-12" value="&amp;lt;1 to 10&amp;gt;" style="text;html=1;align=left;verticalAlign=middle;resizable=0;points=[];autosize=1;strokeColor=none;fillColor=none;" vertex="1" parent="UzuAz0OelTo2IA3SxHxy-1">
          <mxGeometry x="198" y="170" width="70" height="30" as="geometry" />
        </mxCell>
        <mxCell id="kNPeD4hBuYndt3T_yiyA-14" value="Accessibility" style="text;html=1;align=center;verticalAlign=middle;resizable=0;points=[];autosize=1;strokeColor=none;fillColor=none;" vertex="1" parent="UzuAz0OelTo2IA3SxHxy-1">
          <mxGeometry x="20" y="447" width="90" height="30" as="geometry" />
        </mxCell>
        <mxCell id="kNPeD4hBuYndt3T_yiyA-15" value="" style="shape=image;html=1;verticalAlign=top;verticalLabelPosition=bottom;labelBackgroundColor=#ffffff;imageAspect=0;aspect=fixed;image=https://cdn2.iconfinder.com/data/icons/boxicons-regular-vol-2/24/bx-handicap-128.png" vertex="1" parent="UzuAz0OelTo2IA3SxHxy-1">
          <mxGeometry x="20" y="477" width="40" height="40" as="geometry" />
        </mxCell>
        <mxCell id="kNPeD4hBuYndt3T_yiyA-16" value="Products" style="text;html=1;align=center;verticalAlign=middle;resizable=0;points=[];autosize=1;strokeColor=none;fillColor=none;" vertex="1" parent="UzuAz0OelTo2IA3SxHxy-1">
          <mxGeometry x="160" y="280" width="70" height="30" as="geometry" />
        </mxCell>
        <mxCell id="kNPeD4hBuYndt3T_yiyA-17" value="" style="rounded=1;whiteSpace=wrap;html=1;" vertex="1" parent="UzuAz0OelTo2IA3SxHxy-1">
          <mxGeometry x="170" y="307" width="70" height="80" as="geometry" />
        </mxCell>
        <mxCell id="kNPeD4hBuYndt3T_yiyA-18" value="" style="group" vertex="1" connectable="0" parent="UzuAz0OelTo2IA3SxHxy-1">
          <mxGeometry x="185" y="313" width="40" height="40" as="geometry" />
        </mxCell>
        <mxCell id="kNPeD4hBuYndt3T_yiyA-19" value="" style="rounded=0;whiteSpace=wrap;html=1;" vertex="1" parent="kNPeD4hBuYndt3T_yiyA-18">
          <mxGeometry width="40" height="40" as="geometry" />
        </mxCell>
        <mxCell id="kNPeD4hBuYndt3T_yiyA-20" value="" style="aspect=fixed;html=1;points=[];align=center;image;fontSize=12;image=img/lib/azure2/general/Image.svg;" vertex="1" parent="kNPeD4hBuYndt3T_yiyA-18">
          <mxGeometry x="9.23076923076923" y="12.666666666666666" width="19.692307692307693" height="13.53846153846154" as="geometry" />
        </mxCell>
        <mxCell id="kNPeD4hBuYndt3T_yiyA-21" value="Product&lt;br&gt;description" style="text;html=1;align=center;verticalAlign=middle;resizable=0;points=[];autosize=1;strokeColor=none;fillColor=none;" vertex="1" parent="UzuAz0OelTo2IA3SxHxy-1">
          <mxGeometry x="165" y="347" width="80" height="40" as="geometry" />
        </mxCell>
        <mxCell id="kNPeD4hBuYndt3T_yiyA-22" value="" style="rounded=1;whiteSpace=wrap;html=1;" vertex="1" parent="UzuAz0OelTo2IA3SxHxy-1">
          <mxGeometry x="253" y="307" width="70" height="80" as="geometry" />
        </mxCell>
        <mxCell id="kNPeD4hBuYndt3T_yiyA-23" value="" style="group" vertex="1" connectable="0" parent="UzuAz0OelTo2IA3SxHxy-1">
          <mxGeometry x="268" y="313" width="40" height="40" as="geometry" />
        </mxCell>
        <mxCell id="kNPeD4hBuYndt3T_yiyA-24" value="" style="rounded=0;whiteSpace=wrap;html=1;" vertex="1" parent="kNPeD4hBuYndt3T_yiyA-23">
          <mxGeometry width="40" height="40" as="geometry" />
        </mxCell>
        <mxCell id="kNPeD4hBuYndt3T_yiyA-25" value="" style="aspect=fixed;html=1;points=[];align=center;image;fontSize=12;image=img/lib/azure2/general/Image.svg;" vertex="1" parent="kNPeD4hBuYndt3T_yiyA-23">
          <mxGeometry x="9.23076923076923" y="12.666666666666666" width="19.692307692307693" height="13.53846153846154" as="geometry" />
        </mxCell>
        <mxCell id="kNPeD4hBuYndt3T_yiyA-26" value="Product&lt;br&gt;description" style="text;html=1;align=center;verticalAlign=middle;resizable=0;points=[];autosize=1;strokeColor=none;fillColor=none;" vertex="1" parent="UzuAz0OelTo2IA3SxHxy-1">
          <mxGeometry x="248" y="347" width="80" height="40" as="geometry" />
        </mxCell>
        <mxCell id="kNPeD4hBuYndt3T_yiyA-27" value="" style="rounded=1;whiteSpace=wrap;html=1;" vertex="1" parent="UzuAz0OelTo2IA3SxHxy-1">
          <mxGeometry x="333" y="307" width="70" height="80" as="geometry" />
        </mxCell>
        <mxCell id="kNPeD4hBuYndt3T_yiyA-28" value="" style="group" vertex="1" connectable="0" parent="UzuAz0OelTo2IA3SxHxy-1">
          <mxGeometry x="348" y="313" width="40" height="40" as="geometry" />
        </mxCell>
        <mxCell id="kNPeD4hBuYndt3T_yiyA-29" value="" style="rounded=0;whiteSpace=wrap;html=1;" vertex="1" parent="kNPeD4hBuYndt3T_yiyA-28">
          <mxGeometry width="40" height="40" as="geometry" />
        </mxCell>
        <mxCell id="kNPeD4hBuYndt3T_yiyA-30" value="" style="aspect=fixed;html=1;points=[];align=center;image;fontSize=12;image=img/lib/azure2/general/Image.svg;" vertex="1" parent="kNPeD4hBuYndt3T_yiyA-28">
          <mxGeometry x="9.23076923076923" y="12.666666666666666" width="19.692307692307693" height="13.53846153846154" as="geometry" />
        </mxCell>
        <mxCell id="kNPeD4hBuYndt3T_yiyA-31" value="Product&lt;br&gt;description" style="text;html=1;align=center;verticalAlign=middle;resizable=0;points=[];autosize=1;strokeColor=none;fillColor=none;" vertex="1" parent="UzuAz0OelTo2IA3SxHxy-1">
          <mxGeometry x="328" y="347" width="80" height="40" as="geometry" />
        </mxCell>
        <mxCell id="kNPeD4hBuYndt3T_yiyA-32" value="" style="rounded=1;whiteSpace=wrap;html=1;" vertex="1" parent="UzuAz0OelTo2IA3SxHxy-1">
          <mxGeometry x="413" y="307" width="70" height="80" as="geometry" />
        </mxCell>
        <mxCell id="kNPeD4hBuYndt3T_yiyA-33" value="" style="group" vertex="1" connectable="0" parent="UzuAz0OelTo2IA3SxHxy-1">
          <mxGeometry x="428" y="313" width="40" height="40" as="geometry" />
        </mxCell>
        <mxCell id="kNPeD4hBuYndt3T_yiyA-34" value="" style="rounded=0;whiteSpace=wrap;html=1;" vertex="1" parent="kNPeD4hBuYndt3T_yiyA-33">
          <mxGeometry width="40" height="40" as="geometry" />
        </mxCell>
        <mxCell id="kNPeD4hBuYndt3T_yiyA-35" value="" style="aspect=fixed;html=1;points=[];align=center;image;fontSize=12;image=img/lib/azure2/general/Image.svg;" vertex="1" parent="kNPeD4hBuYndt3T_yiyA-33">
          <mxGeometry x="9.23076923076923" y="12.666666666666666" width="19.692307692307693" height="13.53846153846154" as="geometry" />
        </mxCell>
        <mxCell id="kNPeD4hBuYndt3T_yiyA-36" value="Product&lt;br&gt;description" style="text;html=1;align=center;verticalAlign=middle;resizable=0;points=[];autosize=1;strokeColor=none;fillColor=none;" vertex="1" parent="UzuAz0OelTo2IA3SxHxy-1">
          <mxGeometry x="408" y="347" width="80" height="40" as="geometry" />
        </mxCell>
        <mxCell id="kNPeD4hBuYndt3T_yiyA-37" value="" style="rounded=1;whiteSpace=wrap;html=1;" vertex="1" parent="UzuAz0OelTo2IA3SxHxy-1">
          <mxGeometry x="169" y="397" width="70" height="80" as="geometry" />
        </mxCell>
        <mxCell id="kNPeD4hBuYndt3T_yiyA-38" value="" style="group" vertex="1" connectable="0" parent="UzuAz0OelTo2IA3SxHxy-1">
          <mxGeometry x="184" y="403" width="40" height="40" as="geometry" />
        </mxCell>
        <mxCell id="kNPeD4hBuYndt3T_yiyA-39" value="" style="rounded=0;whiteSpace=wrap;html=1;" vertex="1" parent="kNPeD4hBuYndt3T_yiyA-38">
          <mxGeometry width="40" height="40" as="geometry" />
        </mxCell>
        <mxCell id="kNPeD4hBuYndt3T_yiyA-40" value="" style="aspect=fixed;html=1;points=[];align=center;image;fontSize=12;image=img/lib/azure2/general/Image.svg;" vertex="1" parent="kNPeD4hBuYndt3T_yiyA-38">
          <mxGeometry x="9.23076923076923" y="12.666666666666666" width="19.692307692307693" height="13.53846153846154" as="geometry" />
        </mxCell>
        <mxCell id="kNPeD4hBuYndt3T_yiyA-41" value="Product&lt;br&gt;description" style="text;html=1;align=center;verticalAlign=middle;resizable=0;points=[];autosize=1;strokeColor=none;fillColor=none;" vertex="1" parent="UzuAz0OelTo2IA3SxHxy-1">
          <mxGeometry x="164" y="437" width="80" height="40" as="geometry" />
        </mxCell>
        <mxCell id="kNPeD4hBuYndt3T_yiyA-42" value="" style="rounded=1;whiteSpace=wrap;html=1;" vertex="1" parent="UzuAz0OelTo2IA3SxHxy-1">
          <mxGeometry x="252" y="397" width="70" height="80" as="geometry" />
        </mxCell>
        <mxCell id="kNPeD4hBuYndt3T_yiyA-43" value="" style="group" vertex="1" connectable="0" parent="UzuAz0OelTo2IA3SxHxy-1">
          <mxGeometry x="267" y="403" width="40" height="40" as="geometry" />
        </mxCell>
        <mxCell id="kNPeD4hBuYndt3T_yiyA-44" value="" style="rounded=0;whiteSpace=wrap;html=1;" vertex="1" parent="kNPeD4hBuYndt3T_yiyA-43">
          <mxGeometry width="40" height="40" as="geometry" />
        </mxCell>
        <mxCell id="kNPeD4hBuYndt3T_yiyA-45" value="" style="aspect=fixed;html=1;points=[];align=center;image;fontSize=12;image=img/lib/azure2/general/Image.svg;" vertex="1" parent="kNPeD4hBuYndt3T_yiyA-43">
          <mxGeometry x="9.23076923076923" y="12.666666666666666" width="19.692307692307693" height="13.53846153846154" as="geometry" />
        </mxCell>
        <mxCell id="kNPeD4hBuYndt3T_yiyA-46" value="Product&lt;br&gt;description" style="text;html=1;align=center;verticalAlign=middle;resizable=0;points=[];autosize=1;strokeColor=none;fillColor=none;" vertex="1" parent="UzuAz0OelTo2IA3SxHxy-1">
          <mxGeometry x="247" y="437" width="80" height="40" as="geometry" />
        </mxCell>
        <mxCell id="kNPeD4hBuYndt3T_yiyA-47" value="" style="rounded=1;whiteSpace=wrap;html=1;" vertex="1" parent="UzuAz0OelTo2IA3SxHxy-1">
          <mxGeometry x="332" y="397" width="70" height="80" as="geometry" />
        </mxCell>
        <mxCell id="kNPeD4hBuYndt3T_yiyA-48" value="" style="group" vertex="1" connectable="0" parent="UzuAz0OelTo2IA3SxHxy-1">
          <mxGeometry x="347" y="403" width="40" height="40" as="geometry" />
        </mxCell>
        <mxCell id="kNPeD4hBuYndt3T_yiyA-49" value="" style="rounded=0;whiteSpace=wrap;html=1;" vertex="1" parent="kNPeD4hBuYndt3T_yiyA-48">
          <mxGeometry width="40" height="40" as="geometry" />
        </mxCell>
        <mxCell id="kNPeD4hBuYndt3T_yiyA-50" value="" style="aspect=fixed;html=1;points=[];align=center;image;fontSize=12;image=img/lib/azure2/general/Image.svg;" vertex="1" parent="kNPeD4hBuYndt3T_yiyA-48">
          <mxGeometry x="9.23076923076923" y="12.666666666666666" width="19.692307692307693" height="13.53846153846154" as="geometry" />
        </mxCell>
        <mxCell id="kNPeD4hBuYndt3T_yiyA-51" value="Product&lt;br&gt;description" style="text;html=1;align=center;verticalAlign=middle;resizable=0;points=[];autosize=1;strokeColor=none;fillColor=none;" vertex="1" parent="UzuAz0OelTo2IA3SxHxy-1">
          <mxGeometry x="327" y="437" width="80" height="40" as="geometry" />
        </mxCell>
        <mxCell id="kNPeD4hBuYndt3T_yiyA-52" value="" style="rounded=1;whiteSpace=wrap;html=1;" vertex="1" parent="UzuAz0OelTo2IA3SxHxy-1">
          <mxGeometry x="412" y="397" width="70" height="80" as="geometry" />
        </mxCell>
        <mxCell id="kNPeD4hBuYndt3T_yiyA-53" value="" style="group" vertex="1" connectable="0" parent="UzuAz0OelTo2IA3SxHxy-1">
          <mxGeometry x="427" y="403" width="40" height="40" as="geometry" />
        </mxCell>
        <mxCell id="kNPeD4hBuYndt3T_yiyA-54" value="" style="rounded=0;whiteSpace=wrap;html=1;" vertex="1" parent="kNPeD4hBuYndt3T_yiyA-53">
          <mxGeometry width="40" height="40" as="geometry" />
        </mxCell>
        <mxCell id="kNPeD4hBuYndt3T_yiyA-55" value="" style="aspect=fixed;html=1;points=[];align=center;image;fontSize=12;image=img/lib/azure2/general/Image.svg;" vertex="1" parent="kNPeD4hBuYndt3T_yiyA-53">
          <mxGeometry x="9.23076923076923" y="12.666666666666666" width="19.692307692307693" height="13.53846153846154" as="geometry" />
        </mxCell>
        <mxCell id="kNPeD4hBuYndt3T_yiyA-56" value="Product&lt;br&gt;description" style="text;html=1;align=center;verticalAlign=middle;resizable=0;points=[];autosize=1;strokeColor=none;fillColor=none;" vertex="1" parent="UzuAz0OelTo2IA3SxHxy-1">
          <mxGeometry x="407" y="437" width="80" height="40" as="geometry" />
        </mxCell>
        <mxCell id="kNPeD4hBuYndt3T_yiyA-57" value="" style="verticalLabelPosition=bottom;shadow=0;dashed=0;align=center;html=1;verticalAlign=top;strokeWidth=1;shape=mxgraph.mockup.forms.horSlider;strokeColor=#999999;sliderStyle=basic;sliderPos=97.398;handleStyle=circle;fillColor2=#ddeeff;direction=north;" vertex="1" parent="UzuAz0OelTo2IA3SxHxy-1">
          <mxGeometry x="560" y="110" width="30" height="410" as="geometry" />
        </mxCell>
        <mxCell id="kNPeD4hBuYndt3T_yiyA-80" value="Custom order" style="strokeWidth=1;shadow=0;dashed=0;align=center;html=1;shape=mxgraph.mockup.buttons.button;strokeColor=#d6b656;mainText=;buttonStyle=round;fontSize=17;fontStyle=1;fillColor=#fff2cc;whiteSpace=wrap;" vertex="1" parent="UzuAz0OelTo2IA3SxHxy-1">
          <mxGeometry x="160" y="237" width="186" height="40" as="geometry" />
        </mxCell>
        <mxCell id="kNPeD4hBuYndt3T_yiyA-82" value="Contact:" style="text;html=1;align=right;verticalAlign=middle;resizable=0;points=[];autosize=1;strokeColor=none;fillColor=none;" vertex="1" parent="UzuAz0OelTo2IA3SxHxy-1">
          <mxGeometry x="128" y="195" width="70" height="30" as="geometry" />
        </mxCell>
        <mxCell id="kNPeD4hBuYndt3T_yiyA-83" value="&amp;lt;email &amp;amp; phone number, ...&amp;gt;" style="text;html=1;align=left;verticalAlign=middle;resizable=0;points=[];autosize=1;strokeColor=none;fillColor=none;" vertex="1" parent="UzuAz0OelTo2IA3SxHxy-1">
          <mxGeometry x="198" y="195" width="170" height="30" as="geometry" />
        </mxCell>
        <mxCell id="kNPeD4hBuYndt3T_yiyA-58" value="" style="rounded=1;whiteSpace=wrap;html=1;" vertex="1" parent="1">
          <mxGeometry x="209" y="566" width="70" height="80" as="geometry" />
        </mxCell>
        <mxCell id="kNPeD4hBuYndt3T_yiyA-59" value="" style="group" vertex="1" connectable="0" parent="1">
          <mxGeometry x="224" y="572" width="40" height="40" as="geometry" />
        </mxCell>
        <mxCell id="kNPeD4hBuYndt3T_yiyA-60" value="" style="rounded=0;whiteSpace=wrap;html=1;" vertex="1" parent="kNPeD4hBuYndt3T_yiyA-59">
          <mxGeometry width="40" height="40" as="geometry" />
        </mxCell>
        <mxCell id="kNPeD4hBuYndt3T_yiyA-61" value="" style="aspect=fixed;html=1;points=[];align=center;image;fontSize=12;image=img/lib/azure2/general/Image.svg;" vertex="1" parent="kNPeD4hBuYndt3T_yiyA-59">
          <mxGeometry x="9.23076923076923" y="12.666666666666666" width="19.692307692307693" height="13.53846153846154" as="geometry" />
        </mxCell>
        <mxCell id="kNPeD4hBuYndt3T_yiyA-62" value="Product&lt;br&gt;description" style="text;html=1;align=center;verticalAlign=middle;resizable=0;points=[];autosize=1;strokeColor=none;fillColor=none;" vertex="1" parent="1">
          <mxGeometry x="204" y="606" width="80" height="40" as="geometry" />
        </mxCell>
        <mxCell id="kNPeD4hBuYndt3T_yiyA-63" value="" style="rounded=1;whiteSpace=wrap;html=1;" vertex="1" parent="1">
          <mxGeometry x="292" y="566" width="70" height="80" as="geometry" />
        </mxCell>
        <mxCell id="kNPeD4hBuYndt3T_yiyA-64" value="" style="group" vertex="1" connectable="0" parent="1">
          <mxGeometry x="307" y="572" width="40" height="40" as="geometry" />
        </mxCell>
        <mxCell id="kNPeD4hBuYndt3T_yiyA-65" value="" style="rounded=0;whiteSpace=wrap;html=1;" vertex="1" parent="kNPeD4hBuYndt3T_yiyA-64">
          <mxGeometry width="40" height="40" as="geometry" />
        </mxCell>
        <mxCell id="kNPeD4hBuYndt3T_yiyA-66" value="" style="aspect=fixed;html=1;points=[];align=center;image;fontSize=12;image=img/lib/azure2/general/Image.svg;" vertex="1" parent="kNPeD4hBuYndt3T_yiyA-64">
          <mxGeometry x="9.23076923076923" y="12.666666666666666" width="19.692307692307693" height="13.53846153846154" as="geometry" />
        </mxCell>
        <mxCell id="kNPeD4hBuYndt3T_yiyA-67" value="Product&lt;br&gt;description" style="text;html=1;align=center;verticalAlign=middle;resizable=0;points=[];autosize=1;strokeColor=none;fillColor=none;" vertex="1" parent="1">
          <mxGeometry x="287" y="606" width="80" height="40" as="geometry" />
        </mxCell>
        <mxCell id="kNPeD4hBuYndt3T_yiyA-68" value="" style="rounded=1;whiteSpace=wrap;html=1;" vertex="1" parent="1">
          <mxGeometry x="372" y="566" width="70" height="80" as="geometry" />
        </mxCell>
        <mxCell id="kNPeD4hBuYndt3T_yiyA-69" value="" style="group" vertex="1" connectable="0" parent="1">
          <mxGeometry x="387" y="572" width="40" height="40" as="geometry" />
        </mxCell>
        <mxCell id="kNPeD4hBuYndt3T_yiyA-70" value="" style="rounded=0;whiteSpace=wrap;html=1;" vertex="1" parent="kNPeD4hBuYndt3T_yiyA-69">
          <mxGeometry width="40" height="40" as="geometry" />
        </mxCell>
        <mxCell id="kNPeD4hBuYndt3T_yiyA-71" value="" style="aspect=fixed;html=1;points=[];align=center;image;fontSize=12;image=img/lib/azure2/general/Image.svg;" vertex="1" parent="kNPeD4hBuYndt3T_yiyA-69">
          <mxGeometry x="9.23076923076923" y="12.666666666666666" width="19.692307692307693" height="13.53846153846154" as="geometry" />
        </mxCell>
        <mxCell id="kNPeD4hBuYndt3T_yiyA-72" value="Product&lt;br&gt;description" style="text;html=1;align=center;verticalAlign=middle;resizable=0;points=[];autosize=1;strokeColor=none;fillColor=none;" vertex="1" parent="1">
          <mxGeometry x="367" y="606" width="80" height="40" as="geometry" />
        </mxCell>
        <mxCell id="kNPeD4hBuYndt3T_yiyA-73" value="" style="rounded=1;whiteSpace=wrap;html=1;" vertex="1" parent="1">
          <mxGeometry x="452" y="566" width="70" height="80" as="geometry" />
        </mxCell>
        <mxCell id="kNPeD4hBuYndt3T_yiyA-74" value="" style="group" vertex="1" connectable="0" parent="1">
          <mxGeometry x="467" y="572" width="40" height="40" as="geometry" />
        </mxCell>
        <mxCell id="kNPeD4hBuYndt3T_yiyA-75" value="" style="rounded=0;whiteSpace=wrap;html=1;" vertex="1" parent="kNPeD4hBuYndt3T_yiyA-74">
          <mxGeometry width="40" height="40" as="geometry" />
        </mxCell>
        <mxCell id="kNPeD4hBuYndt3T_yiyA-76" value="" style="aspect=fixed;html=1;points=[];align=center;image;fontSize=12;image=img/lib/azure2/general/Image.svg;" vertex="1" parent="kNPeD4hBuYndt3T_yiyA-74">
          <mxGeometry x="9.23076923076923" y="12.666666666666666" width="19.692307692307693" height="13.53846153846154" as="geometry" />
        </mxCell>
        <mxCell id="kNPeD4hBuYndt3T_yiyA-77" value="Product&lt;br&gt;description" style="text;html=1;align=center;verticalAlign=middle;resizable=0;points=[];autosize=1;strokeColor=none;fillColor=none;" vertex="1" parent="1">
          <mxGeometry x="447" y="606" width="80" height="40" as="geometry" />
        </mxCell>
        <mxCell id="kNPeD4hBuYndt3T_yiyA-78" value="" style="rounded=0;whiteSpace=wrap;html=1;strokeColor=none;" vertex="1" parent="1">
          <mxGeometry x="184" y="600" width="416" height="60" as="geometry" />
        </mxCell>
        <mxCell id="kNPeD4hBuYndt3T_yiyA-79" value="" style="endArrow=none;html=1;rounded=0;" edge="1" parent="1">
          <mxGeometry width="50" height="50" relative="1" as="geometry">
            <mxPoint x="190" y="600" as="sourcePoint" />
            <mxPoint x="600" y="600" as="targetPoint" />
          </mxGeometry>
        </mxCell>
      </root>
    </mxGraphModel>
  </diagram>
</mxfile>
